<?xml version="1.0" encoding="UTF-8" standalone="no"?>
<!-- Created with Inkscape (http://www.inkscape.org/) -->

<svg
   xmlns:dc="http://purl.org/dc/elements/1.1/"
   xmlns:cc="http://creativecommons.org/ns#"
   xmlns:rdf="http://www.w3.org/1999/02/22-rdf-syntax-ns#"
   xmlns:svg="http://www.w3.org/2000/svg"
   xmlns="http://www.w3.org/2000/svg"
   xmlns:sodipodi="http://sodipodi.sourceforge.net/DTD/sodipodi-0.dtd"
   xmlns:inkscape="http://www.inkscape.org/namespaces/inkscape"
   width="744.09448819"
   height="1052.3622047"
   id="svg2"
   version="1.1"
   inkscape:version="0.48.2 r9819"
   sodipodi:docname="hongo.svg">
  <defs
     id="defs4">
    <inkscape:perspective
       sodipodi:type="inkscape:persp3d"
       inkscape:vp_x="0 : 526.18109 : 1"
       inkscape:vp_y="0 : 1000 : 0"
       inkscape:vp_z="744.09448 : 526.18109 : 1"
       inkscape:persp3d-origin="372.04724 : 350.78739 : 1"
       id="perspective3016" />
  </defs>
  <sodipodi:namedview
     id="base"
     pagecolor="#ffffff"
     bordercolor="#666666"
     borderopacity="1.0"
     inkscape:pageopacity="0.0"
     inkscape:pageshadow="2"
     inkscape:zoom="0.1231685"
     inkscape:cx="1455.3992"
     inkscape:cy="677.06368"
     inkscape:document-units="px"
     inkscape:current-layer="layer1"
     showgrid="false"
     showguides="true"
     inkscape:guide-bbox="true"
     inkscape:snap-midpoints="true"
     inkscape:window-width="1916"
     inkscape:window-height="1036"
     inkscape:window-x="4"
     inkscape:window-y="22"
     inkscape:window-maximized="1">
    <sodipodi:guide
       orientation="0,1"
       position="1140,-105.71429"
       id="guide3036" />
  </sodipodi:namedview>
  <metadata
     id="metadata7">
    <rdf:RDF>
      <cc:Work
         rdf:about="">
        <dc:format>image/svg+xml</dc:format>
        <dc:type
           rdf:resource="http://purl.org/dc/dcmitype/StillImage" />
        <dc:title></dc:title>
      </cc:Work>
    </rdf:RDF>
  </metadata>
  <g
     inkscape:label="Layer 1"
     inkscape:groupmode="layer"
     id="layer1">
    <g
       id="g3969"
       inkscape:export-xdpi="90"
       inkscape:export-ydpi="90"
       transform="translate(-1031.1078,97.427509)">
      <path
         sodipodi:nodetypes="szsscssssssccs"
         inkscape:connector-curvature="0"
         id="path3104"
         d="m 1678.5549,403.68439 c -1.3566,117.69384 -50.8371,166.70396 -85.3961,203.99952 -34.5591,37.29556 -104.0557,75.3389 -104.0557,66.3672 -10e-5,-42.42531 0,-71.29056 0,-89.22871 0,-31.54477 -0.6876,-44.33921 -0.6876,-71.18987 0,-2.83403 3.3144,-3.50235 4.7983,-3.38048 36.727,3.01612 139.5429,-0.76992 131.7615,-17.10291 -10.0094,-21.00965 -8.7102,-61.47202 -31.1278,-102.6192 -21.0514,-38.63953 -62.8716,-67.17222 -67.349,-68.8916 -9.7986,-3.76283 50.3369,-55.57048 9.958,-76.93861 -48.1981,-25.50604 -57.9804,48.49511 -74.2612,43.05291 -26.969,-9.01495 -57.4103,-9.3066 -68.8655,-9.20816 0,-92.6974 0,-49.77762 0,-160.65873 216.1801,0 286.3147,191.27254 285.2251,285.79864 z"
         style="fill:#ff8800;fill-opacity:1;stroke:none"
         transform="translate(11.428571,-34.285714)" />
      <path
         style="fill:#ff8800;fill-opacity:1;stroke:none"
         d="m 1119.5333,369.39868 c 1.3566,117.69384 50.8371,166.70396 85.3961,203.99952 34.5591,37.29556 104.0557,75.3389 104.0557,66.3672 10e-5,-42.42531 0,-71.29056 0,-89.22871 0,-31.54477 0.6876,-44.33921 0.6876,-71.18987 0,-2.83403 -3.3144,-3.50235 -4.7983,-3.38048 -36.727,3.01612 -139.5429,-0.76992 -131.7615,-17.10291 10.0094,-21.00965 8.7102,-61.47202 31.1278,-102.6192 21.0514,-38.63953 62.8716,-67.17222 67.349,-68.8916 9.7986,-3.76283 -50.3369,-55.57048 -9.958,-76.93861 48.1981,-25.50604 57.9804,48.49511 74.2612,43.05291 26.969,-9.01495 57.4103,-9.3066 68.8655,-9.20816 0,-92.6974 0,-49.77762 0,-160.658734 -216.1801,0 -286.3147,191.272544 -285.2251,285.798644 z"
         id="path3963"
         inkscape:connector-curvature="0"
         sodipodi:nodetypes="szsscssssssccs" />
    </g>
  </g>
</svg>
